<svg width="5932" height="1507" viewBox="0 0 5932 1507" fill="none" xmlns="http://www.w3.org/2000/svg">
<path d="M529.898 182.699C535.959 115.161 550.678 19.9151 494.398 8.65873H621.678C570.593 16.4516 558.471 55.416 550.678 124.686L503.057 553.294L514.313 614.771H392.228L315.168 199.151L276.205 553.294L288.327 614.771H166.242L66.6702 89.1851C58.8775 44.1596 36.3655 11.2564 0 8.65873H212.998C174.035 8.65873 183.559 58.8795 195.681 130.747L260.62 516.061L305.644 144.601L293.522 83.1239C285.729 38.0985 263.217 11.2564 226.852 8.65873H438.984C400.021 8.65873 408.679 58.8795 422.533 130.747L496.13 522.988L529.898 182.699Z" fill="white"/>
<path d="M826.795 8.65873H1047.59C1009.49 11.2564 996.501 46.7572 996.501 83.1239V528.183C996.501 574.075 1009.49 611.307 1047.59 614.771H826.795C862.295 611.307 877.014 579.27 877.88 539.44V298.727H774.844V548.964C779.174 584.465 793.027 611.307 825.063 614.771H610.334C636.309 612.173 651.028 593.99 657.955 568.014V54.5501C651.028 28.5738 636.309 10.3905 610.334 8.65873H825.063C793.027 11.2564 779.174 38.0985 774.844 73.5993V283.141H877.88V83.1239C877.014 43.2937 862.295 11.2564 826.795 8.65873Z" fill="white"/>
<path d="M1360.05 0C1768.73 0 1770.47 620.832 1360.05 620.832C949.644 620.832 949.644 0 1360.05 0ZM1534.96 545.501C1735.83 388.778 1386.9 -79.6604 1186.02 77.0628C979.948 236.384 1334.95 699.626 1534.96 545.501Z" fill="white"/>
<path d="M2396.93 557.623C2444.55 527.317 2471.4 502.207 2503.43 438.132L2522.48 446.791C2479.19 545.501 2385.68 620.832 2242.81 620.832C1833.27 620.832 1833.27 0 2242.81 0C2385.68 0 2479.19 76.1969 2522.48 174.907L2394.34 332.496C2400.4 167.98 2292.17 19.0492 2183.07 22.5128C1873.96 32.0373 2107.74 743.786 2396.93 557.623Z" fill="white"/>
<path d="M2849.92 0C3258.6 0 3260.33 620.832 2849.92 620.832C2439.51 620.832 2439.51 0 2849.92 0ZM3024.82 545.501C3225.7 388.778 2876.76 -79.6604 2675.88 77.0628C2469.81 236.384 2824.81 699.626 3024.82 545.501Z" fill="white"/>
<path d="M3404.3 8.65873H3525.52C3490.02 8.65873 3473.57 34.635 3475.3 91.7827L3470.97 446.791C3470.97 579.27 3409.5 620.832 3355.82 620.832C3267.5 620.832 3214.68 556.757 3214.68 446.791L3211.22 91.7827C3212.95 44.1596 3203.43 8.65873 3161 8.65873H3380.93C3338.5 8.65873 3328.98 44.1596 3329.84 91.7827L3328.11 446.791C3328.11 535.976 3355.82 572.343 3397.38 572.343C3427.68 572.343 3457.12 537.708 3457.12 447.657L3454.52 91.7827C3456.26 44.1596 3446.73 8.65873 3404.3 8.65873Z" fill="white"/>
<path d="M3712.02 596.587C3788.21 596.587 3824.58 458.048 3824.58 458.048L3791.68 613.039L3508.54 613.905C3538.85 613.905 3563.09 596.587 3561.36 568.014V55.416C3563.96 25.9763 3537.98 8.65873 3508.54 8.65873H3721.54C3686.91 8.65873 3673.05 25.9763 3673.05 55.416V596.587H3712.02Z" fill="white"/>
<path d="M3989.58 8.65873C4257.12 8.65873 4257.12 613.039 3988.71 613.039L3828.53 614.771C3866.63 611.307 3874.42 574.075 3873.55 528.183V91.7827C3874.42 46.7572 3866.63 11.2564 3828.53 8.65873H3989.58ZM4007.76 596.587C4090.88 581.002 4092.61 23.3786 4003.43 23.3786H3992.17L3991.31 597.453L4007.76 596.587Z" fill="white"/>
<path d="M4672.37 8.65873H4893.16C4855.06 11.2564 4842.08 46.7572 4842.08 83.1239V528.183C4842.08 574.075 4855.06 611.307 4893.16 614.771H4672.37C4707.87 611.307 4722.59 579.27 4723.45 539.44V298.727H4620.42V548.964C4624.75 584.465 4638.6 611.307 4670.64 614.771H4455.91C4481.88 612.173 4496.6 593.99 4503.53 568.014V54.5501C4496.6 28.5738 4481.88 10.3905 4455.91 8.65873H4670.64C4638.6 11.2564 4624.75 38.0985 4620.42 73.5993V283.141H4723.45V83.1239C4722.59 43.2937 4707.87 11.2564 4672.37 8.65873Z" fill="white"/>
<path d="M5235.57 535.976C5243.36 581.002 5254.62 611.307 5291.85 614.771L5066.73 613.039C5132.53 606.112 5107.42 507.402 5099.63 465.84L4983.61 463.243C4972.35 516.061 4949.84 603.514 5012.18 613.039H4884.9C4935.99 604.38 4941.18 564.55 4955.9 497.012L5039.02 103.039L5027.77 25.9763L5142.92 8.65873L5235.57 535.976ZM4992.27 438.998H5094.44L5054.61 145.467H5052.01L4992.27 438.998Z" fill="white"/>
<path d="M5532.57 180.102C5544.7 115.161 5559.42 19.9151 5503.14 8.65873H5630.42C5579.33 16.4516 5569.81 56.2818 5559.42 124.686L5494.48 553.294L5506.6 614.771H5384.51L5267.63 86.5874C5258.1 41.562 5237.32 11.2564 5200.96 7.79287L5413.95 8.65873C5374.99 8.65873 5384.51 58.8795 5396.64 130.747L5481.49 522.988L5532.57 180.102Z" fill="white"/>
<path d="M5819.44 596.587C5895.63 596.587 5932 458.048 5932 458.048L5899.1 613.039L5691.29 614.771H5615.97C5658.39 614.771 5667.92 575.806 5666.19 528.183L5668.78 445.925L5666.19 92.6485C5667.92 45.0255 5658.39 8.65873 5615.97 8.65873H5886.11L5900.83 180.968C5900.83 179.236 5873.99 23.3786 5823.77 23.3786H5780.48V284.007H5796.06C5854.07 284.007 5862.73 198.285 5862.73 194.822V420.815C5862.73 420.815 5857.54 303.056 5796.06 303.056H5780.48V596.587H5819.44Z" fill="white"/>
<path d="M553.218 894.827H720.327C942.849 894.827 942.849 1333.83 723.79 1333.83V1443.79C727.253 1476.69 739.375 1500.94 773.143 1500.94H553.218C595.645 1500.94 605.169 1461.97 603.437 1414.35V980.548C605.169 932.925 595.645 894.827 553.218 894.827ZM728.985 1313.91C786.131 1313.91 786.131 907.815 723.79 907.815V1313.91H728.985Z" fill="#FF53B9"/>
<path d="M1093.12 1292.26C1131.22 1329.5 1153.73 1413.49 1227.33 1371.06L1229.06 1500.94C1088.79 1501.8 1099.18 1313.04 1064.55 1296.59V1443.79C1068.01 1476.69 1080.13 1500.94 1113.9 1500.94H893.976C936.402 1500.94 945.927 1461.97 944.195 1414.35V980.548C945.927 932.925 936.402 894.827 893.976 894.827H1061.08C1273.22 894.827 1283.61 1259.36 1093.12 1292.26ZM1069.74 1275.81C1126.89 1275.81 1126.89 907.815 1064.55 907.815V1275.81H1069.74Z" fill="#FF53B9"/>
<path d="M1458.5 1482.76C1534.7 1482.76 1571.06 1344.22 1571.06 1344.22L1538.16 1499.21L1330.36 1500.94H1255.03C1297.45 1500.94 1306.98 1461.97 1305.25 1414.35L1307.84 1332.09L1305.25 978.817C1306.98 931.194 1297.45 894.827 1255.03 894.827H1525.17L1539.89 1067.14C1539.89 1065.4 1513.05 909.547 1462.83 909.547H1419.54V1170.18H1435.12C1493.13 1170.18 1501.79 1084.45 1501.79 1080.99V1306.98C1501.79 1306.98 1496.6 1189.22 1435.12 1189.22H1419.54V1482.76H1458.5Z" fill="#FF53B9"/>
<path d="M1749.28 894.827C2016.83 894.827 2016.83 1499.21 1748.42 1499.21L1588.24 1500.94C1626.33 1497.48 1634.13 1460.24 1633.26 1414.35V977.951C1634.13 932.925 1626.33 897.425 1588.24 894.827H1749.28ZM1767.47 1482.76C1850.59 1467.17 1852.32 909.547 1763.14 909.547H1751.88L1751.02 1483.62L1767.47 1482.76Z" fill="#FF53B9"/>
<path d="M2124.73 1414.35C2124.73 1460.24 2137.72 1497.48 2175.81 1500.94H1961.08C1995.72 1497.48 2010.44 1465.44 2012.17 1425.61V969.292C2010.44 929.462 1995.72 897.425 1961.08 894.827H2175.81C2137.72 897.425 2125.6 934.657 2124.73 980.548V1414.35Z" fill="#FF53B9"/>
<path d="M2642.57 1443.79C2690.19 1413.49 2717.03 1388.38 2749.07 1324.3L2768.11 1332.96C2724.82 1431.67 2631.31 1507 2488.45 1507C2078.9 1507 2078.9 886.168 2488.45 886.168C2631.31 886.168 2724.82 962.365 2768.11 1061.07L2639.97 1218.66C2646.03 1054.15 2537.8 905.217 2428.7 908.681C2119.59 918.206 2353.37 1629.95 2642.57 1443.79Z" fill="#FF53B9"/>
<path d="M2803.76 894.827H3105.08L3134.52 1060.21C3115.47 1003.06 3103.34 937.255 3030.61 937.255H3015.03V1456.78C3022.82 1482.76 3038.41 1500.94 3066.98 1500.94L2991.65 1499.21L2922.38 1500.94H2847.05C2889.48 1500.94 2899.01 1461.97 2898.14 1414.35L2899.01 1332.09V937.255H2879.09C2806.36 937.255 2793.37 1003.06 2775.19 1060.21L2803.76 894.827Z" fill="#FF53B9"/>
<path d="M3341.55 1482.76C3417.74 1482.76 3454.11 1344.22 3454.11 1344.22L3421.21 1499.21L3213.4 1500.94H3138.07C3180.5 1500.94 3190.02 1461.97 3188.29 1414.35L3190.89 1332.09L3188.29 978.817C3190.02 931.194 3180.5 894.827 3138.07 894.827H3408.22L3422.94 1067.14C3422.94 1065.4 3396.1 909.547 3345.88 909.547H3302.58V1170.18H3318.17C3376.18 1170.18 3384.84 1084.45 3384.84 1080.99V1306.98C3384.84 1306.98 3379.64 1189.22 3318.17 1189.22H3302.58V1482.76H3341.55Z" fill="#FF53B9"/>
<path d="M3632.33 894.827C3899.88 894.827 3899.88 1499.21 3631.46 1499.21L3471.28 1500.94C3509.38 1497.48 3517.17 1460.24 3516.31 1414.35V977.951C3517.17 932.925 3509.38 897.425 3471.28 894.827H3632.33ZM3650.51 1482.76C3733.63 1467.17 3735.37 909.547 3646.18 909.547H3634.93L3634.06 1483.62L3650.51 1482.76Z" fill="#FF53B9"/>
<path d="M4119.44 894.827H4420.76L4450.2 1060.21C4431.15 1003.06 4419.03 937.255 4346.29 937.255H4330.71V1456.78C4338.5 1482.76 4354.09 1500.94 4382.66 1500.94L4307.33 1499.21L4238.06 1500.94H4162.73C4205.16 1500.94 4214.69 1461.97 4213.82 1414.35L4214.69 1332.09V937.255H4194.77C4122.04 937.255 4109.05 1003.06 4090.87 1060.21L4119.44 894.827Z" fill="white"/>
<path d="M4671.95 894.827H4892.74C4854.64 897.425 4841.65 932.925 4841.65 969.292V1414.35C4841.65 1460.24 4854.64 1497.48 4892.74 1500.94H4671.95C4707.45 1497.48 4722.17 1465.44 4723.03 1425.61V1184.89H4620V1435.13C4624.33 1470.63 4638.18 1497.48 4670.22 1500.94H4455.49C4481.46 1498.34 4496.18 1480.16 4503.11 1454.18V940.718C4496.18 914.742 4481.46 896.559 4455.49 894.827H4670.22C4638.18 897.425 4624.33 924.267 4620 959.768V1169.31H4723.03V969.292C4722.17 929.462 4707.45 897.425 4671.95 894.827Z" fill="white"/>
<path d="M5067.25 1414.35C5067.25 1460.24 5080.24 1497.48 5118.34 1500.94H4903.61C4938.24 1497.48 4952.96 1465.44 4954.69 1425.61V969.292C4952.96 929.462 4938.24 897.425 4903.61 894.827H5118.34C5080.24 897.425 5068.12 934.657 5067.25 980.548V1414.35Z" fill="white"/>
<path d="M5275.82 904.352C5230.8 904.352 5216.08 951.975 5216.08 985.744C5216.08 1085.32 5403.97 1152.86 5403.97 1335.56C5403.97 1436.86 5352.88 1506.13 5255.91 1506.13C5229.06 1506.13 5177.11 1485.35 5163.26 1499.21L5158.93 1344.22C5173.65 1422.14 5197.03 1487.95 5257.64 1487.95C5286.21 1487.95 5311.32 1473.23 5311.32 1410.02C5311.32 1227.32 5133.82 1191.82 5133.82 1023.84C5133.82 925.998 5184.91 886.168 5266.3 886.168C5300.93 886.168 5336.43 900.888 5345.95 893.961L5354.61 1061.07C5343.36 1007.39 5343.36 904.352 5275.82 904.352Z" fill="white"/>
</svg>
