<svg width="224" height="91" viewBox="0 0 224 91" fill="none" xmlns="http://www.w3.org/2000/svg">
<path d="M30.1325 87.44C41.3965 87.44 46.7725 66.96 46.7725 66.96L41.9085 89.872L0.0524966 90C4.5325 90 8.1165 87.44 7.8605 83.216V7.43999C8.2445 3.088 4.4045 0.527992 0.0524966 0.527992H31.5405C26.4205 0.527992 24.3725 3.088 24.3725 7.43999V87.44H30.1325ZM61.6925 87.44C72.9565 87.44 78.3325 66.96 78.3325 66.96L73.4685 89.872L42.7485 90.128H31.6125C37.8845 90.128 39.2925 84.368 39.0365 77.328L39.4205 65.168L39.0365 12.944C39.2925 5.904 37.8845 0.527992 31.6125 0.527992H71.5485L73.7245 26C73.7245 25.744 69.7565 2.70399 62.3325 2.70399H55.9325V41.232H58.2365C66.8125 41.232 68.0925 28.56 68.0925 28.048V61.456C68.0925 61.456 67.3245 44.048 58.2365 44.048H55.9325V87.44H61.6925ZM139.368 26.256C140.263 16.272 142.439 2.19199 134.119 0.527992H152.936C145.383 1.67999 143.591 7.43999 142.439 17.68L135.399 81.04L137.063 90.128H119.015L107.623 28.688L101.863 81.04L103.655 90.128H85.6075L70.8875 12.432C69.7355 5.77599 66.4075 0.911995 61.0315 0.527992H92.5195C86.7595 0.527992 88.1675 7.952 89.9595 18.576L99.5595 75.536L106.215 20.624L104.423 11.536C103.271 4.88 99.9435 0.911995 94.5675 0.527992H125.927C120.167 0.527992 121.447 7.952 123.495 18.576L134.375 76.56L139.368 26.256ZM160.859 55.952L159.963 58.512V77.328C159.963 84.112 161.883 89.616 167.515 90.128H135.771C140.891 89.616 143.067 84.88 143.323 78.992V11.152C143.067 5.13599 140.891 0.527992 135.771 0.527992H167.515C161.883 0.527992 160.091 6.032 159.963 12.816V51.344L173.275 11.664C176.731 2.19199 170.587 0.527992 169.051 0.527992H187.227C182.363 0.783997 178.907 3.728 176.091 11.92L169.051 32.272L184.283 78.608C187.099 85.008 190.555 90 196.699 90.128L170.459 89.872L160.859 55.952ZM200.65 72.72C201.93 74.64 202.57 77.2 202.57 80.144C202.57 82.96 201.93 85.392 200.65 87.312C199.37 89.104 197.578 90.128 195.53 90.128C193.482 90.128 191.818 89.104 190.538 87.312C189.258 85.392 188.746 82.96 188.746 80.144C188.746 77.2 189.258 74.64 190.538 72.72C191.818 70.8 193.482 69.904 195.53 69.904C197.578 69.904 199.242 70.8 200.65 72.72ZM221.275 72.72C222.555 74.64 223.195 77.2 223.195 80.144C223.195 82.96 222.555 85.392 221.275 87.312C219.995 89.104 218.203 90.128 216.155 90.128C214.107 90.128 212.443 89.104 211.163 87.312C209.883 85.392 209.371 82.96 209.371 80.144C209.371 77.2 209.883 74.64 211.163 72.72C212.443 70.8 214.107 69.904 216.155 69.904C218.203 69.904 219.867 70.8 221.275 72.72Z" fill="white"/>
</svg>
